<svg id="LAYER_1" xmlns="http://www.w3.org/2000/svg" viewBox="0 0 66.2 178.83"><defs><style>.cls-1,.cls-2{fill:none;stroke-linecap:round;stroke-linejoin:round;stroke-width:0.71px;}.cls-1{stroke:#000;}.cls-2{stroke:#c30;}</style></defs><g id="SPLINE"><polyline class="cls-1" points="20.05 149.62 20.05 149.56 20.05 149.41 20.05 149.16 20.05 148.82 20.05 148.4 20.05 147.91 20.05 146.75 20.05 145.4 20.05 143.91 20.05 140.79 20.05 139.29 20.05 137.9 20.05 136.69 20.05 136.17 20.05 135.72 20.05 135.35 20.05 135.06 20.05 134.86 20.05 134.76 19.96 134.75 19.7 134.75 19.33 134.75 18.53 134.75 18.23 134.75 18.08 134.75 18.01 134.75 17.77 134.75 17 134.75 16.6 134.75 16.29 134.75 16.12 134.75 16.1 134.77 16.1 134.89 16.1 135.11 16.1 135.42 16.1 135.82 16.1 136.28 16.1 136.81 16.1 138.05 16.1 139.45 16.1 142.53 16.1 144.08 16.1 145.55 16.1 146.89 16.1 148.03 16.1 148.5 16.1 148.9 16.1 149.22 16.1 149.45 16.1 149.58 16.1 149.62 16.1 149.7 16.1 149.88 16.1 150.15 16.1 150.5 16.1 150.94 16.1 151.44 16.1 152.63 16.1 154 16.1 155.49 16.1 157.05 16.1 158.61 16.1 160.11 16.1 161.48 16.1 162.66 16.1 163.17 16.1 163.6 16.1 163.96 16.1 164.23 16.1 164.41 16.1 164.49 16.13 164.49 16.32 164.49 16.64 164.49 17.45 164.49 17.8 164.49 18.03 164.49 18.09 164.49 18.26 164.49 18.57 164.49 18.97 164.49 19.74 164.49 19.98 164.49 20.04 164.49 20.05 164.44 20.05 164.3 20.05 164.06 20.05 163.73 20.05 163.32 20.05 162.84 20.05 162.29 20.05 161.04 20.05 159.62 20.05 158.09 20.05 154.99 20.05 153.52 20.05 152.21 20.05 151.1 20.05 150.64 20.05 150.26 20.05 149.96 20.05 149.75 20.05 149.63 20.05 149.62 20.05 149.62 20.05 149.62 20.05 149.62"/></g><g id="SPLINE-2" data-name="SPLINE"><polyline class="cls-1" points="50.09 149.62 50.09 149.56 50.09 149.41 50.09 149.16 50.09 148.82 50.09 148.4 50.09 147.91 50.09 146.75 50.09 145.4 50.09 143.91 50.09 140.79 50.09 139.29 50.09 137.9 50.09 136.69 50.09 136.17 50.09 135.72 50.09 135.35 50.09 135.06 50.09 134.86 50.09 134.76 50.01 134.75 49.75 134.75 49.38 134.75 48.58 134.75 48.28 134.75 48.13 134.75 48.06 134.75 47.81 134.75 47.05 134.75 46.65 134.75 46.33 134.75 46.16 134.75 46.15 134.77 46.15 134.89 46.15 135.11 46.15 135.42 46.15 135.82 46.15 136.28 46.15 136.81 46.15 138.05 46.15 139.45 46.15 142.53 46.15 144.08 46.15 145.55 46.15 146.89 46.15 148.03 46.15 148.5 46.15 148.9 46.15 149.22 46.15 149.45 46.15 149.58 46.15 149.62 46.15 149.7 46.15 149.88 46.15 150.15 46.15 150.5 46.15 150.94 46.15 151.44 46.15 152.63 46.15 154 46.15 155.49 46.15 157.05 46.15 158.61 46.15 160.11 46.15 161.48 46.15 162.66 46.15 163.17 46.15 163.6 46.15 163.96 46.15 164.23 46.15 164.41 46.15 164.49 46.17 164.49 46.36 164.49 46.69 164.49 47.5 164.49 47.85 164.49 48.08 164.49 48.14 164.49 48.3 164.49 48.62 164.49 49.02 164.49 49.79 164.49 50.03 164.49 50.09 164.49 50.09 164.44 50.09 164.3 50.09 164.06 50.09 163.73 50.09 163.32 50.09 162.84 50.09 162.29 50.09 161.04 50.09 159.62 50.09 158.09 50.09 154.99 50.09 153.52 50.09 152.21 50.09 151.1 50.09 150.64 50.09 150.26 50.09 149.96 50.09 149.75 50.09 149.63 50.09 149.62 50.09 149.62 50.09 149.62 50.09 149.62"/></g><g id="SPLINE-3" data-name="SPLINE"><polyline class="cls-1" points="5.23 112.92 5.23 112.78 5.23 112.42 5.23 111.29 5.23 110.11 5.23 109.69 5.23 109.47 5.19 109.45 4.98 109.45 4.23 109.45 3.38 109.45 2.84 109.45 2.62 109.45 1.93 109.45 1.07 109.45 0.45 109.45 0.35 109.45 0.35 109.36 0.35 108.76 0.35 107.94 0.35 107.29 0.35 107.09 0.35 106.57 0.35 105.06 0.35 104.87 0.38 104.83 0.61 104.83 1.04 104.83 3.34 104.83 3.7 104.83 3.82 104.83 3.97 104.83 4.35 104.83 6.65 104.83 7.07 104.83 7.28 104.83 7.29 104.77 7.29 104.53 7.29 103.69 7.29 102.76 7.29 102.39 7.29 102.17 7.29 101.93 7.29 101.15 7.29 100.2 7.29 99.53 7.29 99.44 7.13 99.44 6.75 99.44 6.22 99.44 5 99.44 4.45 99.44 4.03 99.44 3.74 99.44 3.43 99.44 2.94 99.44 1.73 99.44 0.68 99.44 0.4 99.44 0.35 99.42 0.35 99.26 0.35 98.96 0.35 98.17 0.35 97.43 0.35 97.2 0.35 97.12 0.35 97.02 0.35 96.76 0.35 96 0.35 95.22 0.35 94.95 0.35 94.82 0.44 94.81 0.76 94.81 1.84 94.81 3.04 94.81 3.5 94.81 3.78 94.81 3.85 94.81 4.1 94.81 5.11 94.81 6.33 94.81 6.84 94.81 7.18 94.81 7.29 94.81 7.29 94.68 7.29 93.96 7.29 93.01 7.29 92.27 7.29 92.05 7.29 91.8 7.29 91.41 7.29 90.46 7.29 89.66 7.29 89.45 7.26 89.42 7 89.42 6.55 89.42 5.36 89.42 4.26 89.42 3.92 89.42 3.82 89.42 3.64 89.42 3.25 89.42 0.94 89.42 0.54 89.42 0.36 89.42 0.35 89.36 0.35 89.14 0.35 87.61 0.35 87.13 0.35 86.91 0.35 86.23 0.35 85.42 0.35 84.86 0.36 84.8 0.54 84.8 0.94 84.8 1.48 84.8 2.71 84.8 3.25 84.8 3.64 84.8 3.92 84.8 4.26 84.8 4.76 84.8 5.98 84.8 7 84.8 7.25 84.8 7.29 84.77 7.29 84.56 7.29 84.21 7.29 83.28 7.29 82.43 7.29 82.17 7.29 82.1 7.29 81.95 7.29 81.64 7.29 80.74 7.29 79.84 7.29 79.54 7.29 79.41 7.18 79.41 6.84 79.41 5.74 79.41 4.55 79.41 4.1 79.41 3.85 79.41 3.78 79.41 3.51 79.41 2.47 79.41 1.26 79.41 0.76 79.41 0.44 79.41 0.35 79.4 0.35 79.27 0.35 78.64 0.35 77.82 0.35 77.2 0.35 77.02 0.35 76.45 0.35 75.64 0.35 74.96 0.35 74.8 0.4 74.78 0.68 74.78 1.14 74.78 2.34 74.78 3.42 74.78 3.74 74.78 3.83 74.78 4.03 74.78 4.44 74.78 6.75 74.78 7.13 74.78 7.29 74.78 7.29 74.69 7.29 74.42 7.29 72.63 7.29 72.29 7.29 72.1 7.29 72.05 7.29 71.83 7.29 71.01 7.29 70.07 7.29 69.69 7.29 69.45 7.28 69.39 7.07 69.39 6.66 69.39 6.11 69.39 4.88 69.39 4.35 69.39 3.98 69.39 3.7 69.39 3.34 69.39 2.83 69.39 1.61 69.39 0.61 69.39 0.38 69.39 0.35 69.29 0.35 68.77 0.35 67.91 0.35 65.73 0.35 64.66 0.35 63.78 0.35 63.23 0.35 63.07 0.35 62.69 0.35 61.93 0.35 59.8 0.35 58.7 0.35 57.75 0.35 57.07 0.35 56.8 0.42 56.8 0.65 56.8 1.04 56.8 1.58 56.8 3.05 56.8 4.98 56.8 7.28 56.8 9.87 56.8 15.58 56.8 21.42 56.8 24.17 56.8 26.71 56.8 28.93 56.8 30.77 56.8 32.13 56.8 32.6 56.8 32.92 56.8 33.13 56.8 33.31 56.8 33.65 56.8 34.15 56.8 34.78 56.8 36.42 56.8 38.49 56.8 40.9 56.8 43.57 56.8 46.42 56.8 52.29 56.8 55.15 56.8 57.83 56.8 60.27 56.8 62.37 56.8 64.05 56.8 64.7 56.8 65.22 56.8 65.59 56.8 65.8 56.8 65.84 56.83 65.84 57.23 65.84 57.99 65.84 59.01 65.84 61.23 65.84 62.17 65.84 62.84 65.84 63.34 65.84 64 65.84 64.95 65.84 67.17 65.84 68.18 65.84 68.96 65.84 69.36 65.78 69.39 65.48 69.39 65 69.39 63.8 69.39 62.73 69.39 62.44 69.39 62.36 69.39 62.14 69.39 61.71 69.39 59.41 69.39 59.04 69.39 58.91 69.39 58.91 69.5 58.91 69.79 58.91 71.58 58.91 71.91 58.91 72.07 58.91 72.14 58.91 72.37 58.91 73.2 58.91 74.14 58.91 74.51 58.91 74.74 58.93 74.78 59.16 74.78 60.15 74.78 61.37 74.78 61.89 74.78 62.25 74.78 62.53 74.78 62.9 74.78 63.43 74.78 64.65 74.78 65.2 74.78 65.62 74.78 65.83 74.78 65.84 74.83 65.84 75.36 65.84 76.17 65.84 76.87 65.84 77.06 65.84 77.11 65.84 77.27 65.84 77.56 65.84 78.34 65.84 79.09 65.84 79.32 65.84 79.41 65.69 79.41 65.31 79.41 64.17 79.41 63.01 79.41 62.59 79.41 62.39 79.41 62.3 79.41 61.99 79.41 60.91 79.41 59.7 79.41 59.24 79.41 58.96 79.41 58.91 79.42 58.91 79.61 58.91 80.39 58.91 81.34 58.91 82.01 58.91 82.23 58.91 82.94 58.91 83.89 58.91 84.64 58.91 84.79 58.99 84.8 59.31 84.8 59.8 84.8 61.02 84.8 62.06 84.8 62.33 84.8 62.41 84.8 62.65 84.8 63.09 84.8 65.39 84.8 65.73 84.8 65.84 84.8 65.84 84.91 65.84 85.17 65.84 86.71 65.84 86.98 65.84 87.11 65.84 87.17 65.84 87.38 65.84 88.91 65.84 89.39 65.81 89.42 65.56 89.42 64.54 89.42 63.32 89.42 62.82 89.42 62.48 89.42 62.2 89.42 61.81 89.42 61.27 89.42 60.05 89.42 59.5 89.42 59.1 89.42 58.91 89.42 58.91 89.49 58.91 89.75 58.91 90.14 58.91 91.08 58.91 91.88 58.91 92.09 58.91 92.14 58.91 92.34 58.91 92.7 58.91 93.62 58.91 94.48 58.91 94.74 58.91 94.81 59.09 94.81 59.49 94.81 60.64 94.81 61.8 94.81 62.19 94.81 62.37 94.81 62.48 94.81 62.81 94.81 63.91 94.81 65.1 94.81 65.55 94.81 65.81 94.81 65.84 94.84 65.84 95.02 65.84 95.7 65.84 96.51 65.84 97.06 65.84 97.25 65.84 97.88 65.84 98.7 65.84 99.32 65.84 99.44 65.74 99.44 65.4 99.44 64.9 99.44 63.68 99.44 62.66 99.44 62.41 99.44 62.34 99.44 62.07 99.44 61.61 99.44 60.41 99.44 59.32 99.44 59 99.44 58.91 99.44 58.91 99.59 58.91 99.91 58.91 101.7 58.91 102 58.91 102.13 58.91 102.22 58.91 102.49 58.91 104.27 58.91 104.62 58.91 104.81 58.95 104.83 59.23 104.83 60.27 104.83 61.48 104.83 61.98 104.83 62.3 104.83 62.58 104.83 62.99 104.83 63.54 104.83 64.77 104.83 65.3 104.83 65.68 104.83 65.84 104.83 65.84 104.93 65.84 105.22 65.84 105.64 65.84 106.66 65.84 107.5 65.84 107.7 65.84 107.74 65.84 108.05 65.84 108.55 65.84 109 65.84 109.17 65.84 109.44 65.33 109.45 65.29 109.45 65.07 109.45 64.25 109.45 63.31 109.45 62.93 109.45 62.69 109.45 62.46 109.45 61.71 109.45 60.75 109.45 60.05 109.45 59.94 109.45 59.94 109.58 59.94 109.94 59.94 110.46 59.94 111.68 59.94 112.67 59.94 112.9 59.94 112.98 59.94 113.27 59.94 113.74 59.94 114.95 59.94 116.02 59.94 116.32 59.93 116.39 59.78 116.39 59.5 116.39 57.97 116.39 57.72 116.39 57.63 116.39 57.54 116.39 57.29 116.39 55.76 116.39 55.48 116.39 55.33 116.39 55.31 116.33 55.31 116.03 55.31 114.97 55.31 113.76 55.31 113.28 55.31 112.98 55.31 112.9 55.31 112.68 55.31 112.26 55.31 111.7 55.31 110.47 55.31 109.95 55.31 109.59 55.31 109.45 55.2 109.45 54.51 109.45 53.56 109.45 52.8 109.45 52.57 109.45 52.33 109.45 51.96 109.45 51.02 109.45 50.19 109.45 49.97 109.45 49.92 109.47 49.92 109.7 49.92 110.13 49.92 111.31 49.92 112.43 49.92 112.79 49.92 112.92 49.92 113.07 49.92 113.44 49.92 114.57 49.92 115.74 49.92 116.16 49.92 116.37 49.87 116.39 49.67 116.39 48.95 116.39 48.15 116.39 47.65 116.39 47.44 116.39 46.77 116.39 45.96 116.39 45.38 116.39 45.3 116.39 45.3 116.23 45.3 115.86 45.3 115.33 45.3 114.1 45.3 113.55 45.3 113.14 45.3 112.93 45.3 112.84 45.3 112.53 45.3 112.05 45.3 110.83 45.3 109.78 45.3 109.5 45.28 109.45 45.09 109.45 44.75 109.45 42.97 109.45 42.69 109.45 42.6 109.45 42.48 109.45 42.18 109.45 40.39 109.45 40.07 109.45 39.91 109.45 39.91 109.53 39.91 109.85 39.91 110.93 39.91 112.13 39.91 112.6 39.91 112.87 39.91 112.95 39.91 113.19 39.91 114.2 39.91 115.42 39.91 115.93 39.91 116.28 39.9 116.39 39.79 116.39 39.18 116.39 38.36 116.39 37.73 116.39 37.54 116.39 36.99 116.39 36.18 116.39 35.49 116.39 35.31 116.39 35.28 116.36 35.28 116.11 35.28 115.66 35.28 114.47 35.28 113.37 35.28 113.03 35.28 112.92 35.28 112.75 35.28 112.36 35.28 111.21 35.28 110.05 35.28 109.65 35.28 109.46 35.21 109.45 34.96 109.45 34.11 109.45 33.18 109.45 32.82 109.45 32.62 109.45 32.56 109.45 32.36 109.45 31.57 109.45 30.62 109.45 29.97 109.45 29.89 109.46 29.89 109.63 29.89 110.03 29.89 110.57 29.89 111.79 29.89 112.34 29.89 112.73 29.89 113.02 29.89 113.35 29.89 113.85 29.89 115.07 29.89 116.09 29.89 116.35 29.86 116.39 29.39 116.39 27.86 116.39 27.64 116.39 27.57 116.39 27.45 116.39 27.18 116.39 25.65 116.39 25.39 116.39 25.27 116.39 25.27 116.28 25.27 115.95 25.27 114.85 25.27 113.66 25.27 113.21 25.27 112.95 25.27 112.88 25.27 112.61 25.27 111.58 25.27 110.36 25.27 109.87 25.27 109.54 25.26 109.45 25.11 109.45 24.38 109.45 23.42 109.45 22.7 109.45 22.49 109.45 21.82 109.45 20.88 109.45 20.09 109.45 19.89 109.45 19.87 109.5 19.87 109.77 19.87 110.23 19.87 111.43 19.87 112.52 19.87 112.84 19.87 112.93 19.87 113.12 19.87 113.53 19.87 114.69 19.87 115.84 19.87 116.22 19.87 116.39 19.8 116.39 19.57 116.39 18.82 116.39 18.04 116.39 17.74 116.39 17.58 116.39 17.53 116.39 17.34 116.39 16.65 116.39 15.84 116.39 15.3 116.39 15.25 116.38 15.25 116.17 15.25 115.76 15.25 115.21 15.25 113.99 15.25 113.46 15.25 113.08 15.25 112.8 15.25 112.45 15.25 111.94 15.25 110.71 15.25 109.71 15.25 109.48 15.21 109.45 15 109.45 14.65 109.45 12.97 109.45 12.74 109.45 12.67 109.45 12.52 109.45 12.21 109.45 10.5 109.45 10.23 109.45 10.11 109.45 10.11 109.58 10.11 109.94 10.11 112.23 10.11 112.67 10.11 112.9 10.11 112.98 10.11 113.27 10.11 114.32 10.11 115.53 10.11 116.01 10.11 116.32 10.1 116.39 9.95 116.39 9.27 116.39 8.41 116.39 7.78 116.39 7.58 116.39 6.96 116.39 6.1 116.39 5.41 116.39 5.25 116.39 5.23 116.33 5.23 116.03 5.23 115.56 5.23 114.35 5.23 113.28 5.23 112.98 5.23 112.92 5.23 112.92"/></g><g id="SPLINE-4" data-name="SPLINE"><path class="cls-2" d="M285,362.89h42v42H285Z" transform="translate(-272.9 -306.08)"/></g><g id="SPLINE-5" data-name="SPLINE"><path class="cls-2" d="M321.5,367a1.38,1.38,0,0,1,1.38,1.38,2.13,2.13,0,0,1-.62,1.38h-1.52a2.13,2.13,0,0,1-.62-1.38A1.38,1.38,0,0,1,321.5,367Z" transform="translate(-272.9 -306.08)"/></g><g id="SPLINE-6" data-name="SPLINE"><path class="cls-2" d="M290.5,367a1.38,1.38,0,0,1,1.38,1.38,2.13,2.13,0,0,1-.62,1.38h-1.52a2.13,2.13,0,0,1-.62-1.38A1.38,1.38,0,0,1,290.5,367Z" transform="translate(-272.9 -306.08)"/></g><g id="SPLINE-7" data-name="SPLINE"><path class="cls-2" d="M321.5,398a1.38,1.38,0,0,1,1.38,1.38,2.13,2.13,0,0,1-.62,1.38h-1.52a2.13,2.13,0,0,1-.62-1.38A1.38,1.38,0,0,1,321.5,398Z" transform="translate(-272.9 -306.08)"/></g><g id="SPLINE-8" data-name="SPLINE"><path class="cls-2" d="M290.5,398a1.38,1.38,0,0,1,1.38,1.38,2.13,2.13,0,0,1-.62,1.38h-1.52a2.13,2.13,0,0,1-.62-1.38A1.38,1.38,0,0,1,290.5,398Z" transform="translate(-272.9 -306.08)"/></g><g id="SPLINE-9" data-name="SPLINE"><path class="cls-2" d="M306,372.64a11.25,11.25,0,0,1,11.25,11.25,17.33,17.33,0,0,1-5,11.25H299.79a17.33,17.33,0,0,1-5-11.25A11.25,11.25,0,0,1,306,372.64Z" transform="translate(-272.9 -306.08)"/></g><g id="SPLINE-10" data-name="SPLINE"><path class="cls-1" d="M322.59,349.12c-4.45-4.47-10.72-10.75-17.65-17.68" transform="translate(-272.9 -306.08)"/></g><g id="SPLINE-11" data-name="SPLINE"><polyline class="cls-1" points="32.04 25.36 32.09 25.4 32.2 25.52 32.4 25.71 32.66 25.97 32.98 26.3 33.37 26.68 34.3 27.62 35.42 28.73 36.68 30 38.05 31.37 39.5 32.82 42.46 35.79 43.91 37.23 45.27 38.61 46.53 39.87 47.64 40.98 48.57 41.91 48.95 42.29 49.27 42.61 49.53 42.87 49.72 43.05 49.83 43.17 49.86 43.2 49.85 43.2 49.77 43.2 49.55 43.21 49.51 43.21 49.41 43.21 49.15 43.21 48.36 43.21 47.49 43.21 47.13 43.21 46.89 43.21 46.71 43.21 46.45 43.21 46.09 43.21 45.21 43.21 44.43 43.21 44.19 43.21 44.11 43.21 44.11 43.34 44.11 43.66 44.11 44.64 44.11 45.72 44.11 46.16 44.11 46.45 44.11 46.68 44.11 47.01 44.11 47.46 44.11 48.55 44.11 49.07 44.11 49.5 44.11 49.79 44.11 49.89 44.02 49.89 43.79 49.89 42.36 49.89 42.06 49.89 41.86 49.89 41.7 49.89 41.47 49.89 41.16 49.89 40.4 49.89 39.74 49.89 39.55 49.89 39.49 49.88 39.49 49.74 39.49 49.41 39.49 48.41 39.49 47.34 39.49 46.91 39.49 46.63 39.49 46.54 39.49 46.4 39.49 46.06 39.49 45.6 39.49 44.51 39.49 43.99 39.49 43.57 39.49 43.29 39.49 43.21 39.36 43.21 39.09 43.21 38.28 43.21 37.42 43.21 37.08 43.21 36.85 43.21 36.66 43.21 36.39 43.21 36.01 43.21 35.13 43.21 34.37 43.21 34.16 43.21 34.1 43.21 34.1 43.37 34.1 43.72 34.1 44.72 34.1 45.79 34.1 46.21 34.1 46.48 34.1 46.55 34.1 46.72 34.1 47.06 34.1 47.53 34.1 48.62 34.1 49.14 34.1 49.55 34.1 49.82 34.09 49.89 33.98 49.89 33.73 49.89 32.3 49.89 32.01 49.89 31.83 49.89 31.66 49.89 31.42 49.89 31.09 49.89 30.33 49.89 29.7 49.89 29.52 49.89 29.47 49.88 29.47 49.7 29.47 49.35 29.47 48.33 29.47 47.27 29.47 46.86 29.47 46.6 29.47 46.54 29.47 46.36 29.47 46 29.47 45.53 29.47 44.43 29.47 43.92 29.47 43.52 29.47 43.26 29.46 43.21 29.32 43.21 29.03 43.21 27.35 43.21 27.02 43.21 26.82 43.21 26.77 43.21 26.62 43.21 26.32 43.21 25.94 43.21 25.05 43.21 24.32 43.21 24.12 43.21 24.08 43.22 24.08 43.41 24.08 43.77 24.08 44.8 24.08 45.86 24.08 46.26 24.08 46.5 24.08 46.56 24.08 46.76 24.08 47.12 24.08 47.6 24.08 48.7 24.08 49.2 24.08 49.6 24.08 49.84 24.07 49.89 23.93 49.89 23.68 49.89 22.24 49.89 21.96 49.89 21.8 49.89 21.75 49.89 21.62 49.89 21.02 49.89 20.27 49.89 19.65 49.89 19.48 49.89 19.46 49.87 19.46 49.66 19.46 49.29 19.46 48.26 19.46 47.21 19.46 46.81 19.46 46.59 19.46 46.55 19.46 46.52 19.46 46.31 19.46 45.94 19.46 43.85 19.46 43.47 19.46 43.24 19.44 43.21 19.27 43.21 18.98 43.21 18.6 43.21 17.76 43.21 17.08 43.21 16.91 43.21 16.87 43.21 16.7 43.21 16.41 43.21 15.61 43.21 14.8 43.21 14.51 43.21 14.34 43.21 14.32 43.19 14.32 43.03 14.32 42.38 14.32 41.58 14.32 40.95 14.32 40.79 14.32 40.74 14.32 40.58 14.32 40.3 14.32 38.78 14.32 38.5 14.32 38.35 14.29 38.33 14.06 38.33 13.67 38.33 13.17 38.33 12.07 38.33 11.59 38.33 11.21 38.33 11.01 38.33 10.94 38.33 10.71 38.33 10.32 38.33 9.27 38.33 8.24 38.33 7.87 38.33 7.66 38.33 7.64 38.3 7.64 38.13 7.64 37.48 7.64 36.67 7.64 36.05 7.64 35.9 7.64 35.86 7.64 35.69 7.64 35.4 7.64 33.88 7.64 33.61 7.64 33.46 7.69 33.45 7.93 33.45 8.33 33.45 8.83 33.45 9.93 33.45 10.41 33.45 10.77 33.45 10.96 33.45 11.03 33.45 11.27 33.45 11.67 33.45 12.73 33.45 13.75 33.45 14.12 33.45 14.31 33.45 14.32 33.41 14.32 33.22 14.32 32.52 14.32 31.68 14.32 31.31 14.32 31.03 14.32 30.89 14.32 30.84 14.32 30.65 14.32 30.34 14.32 28.74 14.32 28.46 14.32 28.32 14.27 28.31 14.01 28.31 13.6 28.31 13.1 28.31 12 28.31 11.53 28.31 11.17 28.31 10.99 28.31 10.92 28.31 10.67 28.31 10.26 28.31 9.2 28.31 8.18 28.31 7.83 28.31 7.65 28.31 7.64 28.27 7.64 28.08 7.64 27.41 7.64 26.61 7.64 26.26 7.64 26 7.64 25.83 7.64 25.64 7.64 25.33 7.64 23.82 7.64 23.56 7.64 23.44 7.71 23.43 7.97 23.43 8.39 23.43 8.9 23.43 10 23.43 10.47 23.43 10.81 23.43 10.97 23.43 11.05 23.43 11.32 23.43 11.74 23.43 12.81 23.43 13.81 23.43 14.15 23.43 14.31 23.43 14.32 23.38 14.32 23.17 14.32 22.45 14.32 21.61 14.32 21.25 14.32 20.99 14.32 20.81 14.32 20.59 14.32 20.27 14.32 18.68 14.32 18.42 14.32 18.3 14.24 18.3 13.96 18.3 13.54 18.3 13.02 18.3 11.93 18.3 11.47 18.3 11.13 18.3 10.98 18.3 10.9 18.3 10.62 18.3 10.19 18.3 9.12 18.3 8.12 18.3 7.79 18.3 7.64 18.3 7.64 18.23 7.64 18.03 7.64 17.33 7.64 16.54 7.64 16.2 7.64 15.96 7.64 15.79 7.64 15.58 7.64 15.27 7.64 14.48 7.64 13.76 7.64 13.52 7.64 13.42 7.74 13.42 8.03 13.42 8.46 13.42 8.98 13.42 10.07 13.42 10.52 13.42 10.85 13.42 11.08 13.42 11.37 13.42 11.81 13.42 12.88 13.42 13.87 13.42 14.19 13.42 14.32 13.42 14.32 13.35 14.32 13.14 14.32 12.48 14.32 11.73 14.32 11.41 14.32 11.19 14.32 11.03 14.32 10.83 14.33 10.52 14.34 9.78 14.36 9.1 14.36 8.88 14.36 8.79 14.36 8.65 14.37 7.95 14.37 7.69 14.37 7.65 14.4 7.69 14.52 7.8 14.7 7.99 14.96 8.24 15.65 8.94 16.57 9.86 17.67 10.96 18.92 12.21 20.28 13.57 21.71 15.01 24.65 17.95 26.08 19.39 27.44 20.75 28.7 22.01 29.8 23.12 30.73 24.04 31.43 24.75 31.69 25.01 31.88 25.2 32 25.32 32.04 25.36"/></g><g id="SPLINE-12" data-name="SPLINE"><path class="cls-1" d="M273.26,478.27V472h6.93v-5.4h-6.93V462h6.93v-5.39h-6.93v-4.63h6.93v-5.39h-6.93v-4.62h6.93v-5.39h-6.93V425.23h4.62v6.68h5.39v-6.68h4.62v6.68H293v-6.68h4.88v6.68h5.14v-6.68h4.88v6.68h5.13v-6.68h4.88v6.68h5.14v-6.68H328v6.68h5.13v-6.68h5.65v11.31h-6.93v5.39h6.93v4.62h-6.93v5.39h6.93v4.63h-6.93V462h6.93v4.62h-6.93V472h6.93v12.58H273.26Z" transform="translate(-272.9 -306.08)"/></g><g id="SPLINE-13" data-name="SPLINE"><polyline class="cls-1" points="34.13 24.88 34.09 24.84 33.97 24.73 33.78 24.53 33.52 24.27 33.19 23.94 32.81 23.56 31.87 22.62 30.76 21.51 29.5 20.24 28.12 18.87 26.68 17.42 23.71 14.45 22.27 13.01 20.9 11.63 19.64 10.37 18.53 9.26 17.61 8.34 17.23 7.95 16.9 7.63 16.65 7.38 16.46 7.19 16.35 7.07 16.31 7.04 16.32 7.04 16.41 7.04 16.63 7.03 16.67 7.03 16.77 7.03 17.02 7.03 17.81 7.03 18.69 7.03 19.04 7.03 19.28 7.03 19.47 7.03 19.73 7.03 20.09 7.03 20.97 7.03 21.74 7.03 21.98 7.03 22.06 7.03 22.06 6.9 22.06 6.58 22.06 5.6 22.06 4.52 22.06 4.08 22.06 3.79 22.06 3.56 22.06 3.24 22.06 2.78 22.06 1.69 22.06 1.17 22.06 0.74 22.06 0.45 22.06 0.35 22.16 0.35 22.39 0.35 23.82 0.35 24.11 0.35 24.31 0.35 24.47 0.35 24.7 0.35 25.02 0.35 25.77 0.35 26.43 0.35 26.63 0.35 26.69 0.36 26.69 0.5 26.69 0.83 26.69 1.83 26.69 2.9 26.69 3.33 26.69 3.61 26.69 3.7 26.69 3.85 26.69 4.18 26.69 4.64 26.69 5.73 26.69 6.25 26.69 6.67 26.69 6.95 26.69 7.03 26.81 7.03 27.08 7.03 27.89 7.03 28.76 7.03 29.1 7.03 29.32 7.03 29.51 7.03 29.79 7.03 30.16 7.03 31.04 7.03 31.8 7.03 32.02 7.03 32.08 7.03 32.08 6.87 32.08 6.53 32.08 5.52 32.08 4.45 32.08 4.03 32.08 3.76 32.08 3.69 32.08 3.52 32.08 3.18 32.08 2.71 32.08 1.62 32.08 1.1 32.08 0.69 32.08 0.42 32.08 0.35 32.2 0.35 32.44 0.35 33.88 0.35 34.16 0.35 34.35 0.35 34.52 0.35 34.76 0.35 35.08 0.35 35.84 0.35 36.48 0.35 36.66 0.35 36.7 0.36 36.7 0.54 36.7 0.89 36.7 1.91 36.7 2.97 36.7 3.38 36.7 3.63 36.7 3.7 36.7 3.88 36.7 4.24 36.7 4.71 36.7 5.81 36.7 6.32 36.7 6.72 36.7 6.98 36.71 7.03 36.86 7.03 37.15 7.03 38.83 7.03 39.16 7.03 39.36 7.03 39.41 7.03 39.56 7.03 39.85 7.03 40.24 7.03 41.12 7.03 41.86 7.03 42.05 7.03 42.09 7.02 42.09 6.83 42.09 6.46 42.09 5.44 42.09 4.38 42.09 3.98 42.09 3.74 42.09 3.68 42.09 3.48 42.09 3.12 42.09 2.64 42.09 1.54 42.09 1.04 42.09 0.64 42.09 0.4 42.11 0.35 42.24 0.35 42.5 0.35 43.94 0.35 44.21 0.35 44.38 0.35 44.42 0.35 44.56 0.35 45.15 0.35 45.91 0.35 46.53 0.35 46.69 0.35 46.72 0.38 46.72 0.58 46.72 0.95 46.72 1.99 46.72 3.03 46.72 3.42 46.72 3.66 46.72 3.69 46.72 3.72 46.72 3.93 46.72 4.3 46.72 6.39 46.72 6.78 46.72 7 46.74 7.03 46.9 7.03 47.2 7.03 47.57 7.03 48.42 7.03 49.09 7.03 49.26 7.03 49.31 7.03 49.48 7.03 49.77 7.03 50.57 7.03 51.37 7.03 51.67 7.03 51.83 7.03 51.85 7.05 51.85 7.21 51.85 7.86 51.85 8.66 51.85 9.3 51.85 9.45 51.85 9.5 51.85 9.66 51.85 9.94 51.85 11.46 51.85 11.74 51.85 11.89 51.89 11.91 52.12 11.91 52.51 11.91 53 11.91 54.1 11.91 54.59 11.91 54.96 11.91 55.17 11.91 55.23 11.91 55.46 11.91 55.85 11.91 56.9 11.91 57.94 11.91 58.31 11.91 58.51 11.91 58.53 11.94 58.53 12.11 58.53 12.77 58.53 13.57 58.53 14.19 58.53 14.34 58.53 14.38 58.53 14.55 58.53 14.85 58.53 16.37 58.53 16.64 58.53 16.78 58.49 16.79 58.25 16.79 57.85 16.79 57.34 16.79 56.25 16.79 55.77 16.79 55.4 16.79 55.21 16.79 55.15 16.79 54.9 16.79 54.5 16.79 53.45 16.79 52.42 16.79 52.06 16.79 51.87 16.79 51.85 16.83 51.85 17.02 51.85 17.72 51.85 18.56 51.85 18.93 51.85 19.21 51.85 19.35 51.85 19.4 51.85 19.59 51.85 19.9 51.85 21.5 51.85 21.78 51.85 21.92 51.91 21.93 52.16 21.93 52.57 21.93 53.08 21.93 54.17 21.93 54.65 21.93 55 21.93 55.18 21.93 55.25 21.93 55.51 21.93 55.92 21.93 56.98 21.93 58 21.93 58.35 21.93 58.52 21.93 58.53 21.97 58.53 22.16 58.53 22.84 58.53 23.64 58.53 23.98 58.53 24.24 58.53 24.41 58.53 24.61 58.53 24.91 58.53 26.43 58.53 26.68 58.53 26.8 58.47 26.81 58.2 26.81 57.78 26.81 57.27 26.81 56.18 26.81 55.71 26.81 55.36 26.81 55.2 26.81 55.12 26.81 54.85 26.81 54.44 26.81 53.37 26.81 52.36 26.81 52.02 26.81 51.86 26.81 51.85 26.86 51.85 27.07 51.85 27.79 51.85 28.63 51.85 28.99 51.85 29.25 51.85 29.43 51.85 29.64 51.85 29.97 51.85 31.56 51.85 31.82 51.85 31.94 51.93 31.94 52.21 31.94 52.64 31.94 53.16 31.94 54.24 31.94 54.71 31.94 55.04 31.94 55.19 31.94 55.28 31.94 55.56 31.94 55.98 31.94 57.06 31.94 58.05 31.94 58.38 31.94 58.53 31.94 58.53 32.01 58.53 32.21 58.53 32.91 58.53 33.7 58.53 34.04 58.53 34.28 58.53 34.45 58.53 34.66 58.53 34.97 58.53 35.76 58.53 36.48 58.53 36.72 58.53 36.82 58.44 36.82 58.15 36.82 57.72 36.82 57.19 36.82 56.11 36.82 55.65 36.82 55.33 36.82 55.1 36.82 54.8 36.82 54.37 36.82 53.29 36.82 52.3 36.82 51.98 36.82 51.85 36.82 51.85 36.89 51.85 37.1 51.85 37.76 51.85 38.52 51.85 38.83 51.85 39.05 51.85 39.21 51.85 39.41 51.84 39.72 51.83 40.47 51.82 41.14 51.81 41.36 51.81 41.45 51.81 41.59 51.81 42.29 51.81 42.55 51.81 42.59 51.77 42.55 51.66 42.44 51.47 42.25 51.22 42 50.52 41.3 49.6 40.38 48.5 39.28 47.26 38.03 45.9 36.67 44.47 35.23 41.53 32.29 40.09 30.85 38.73 29.49 37.48 28.23 36.37 27.12 35.45 26.2 34.74 25.49 34.48 25.23 34.29 25.04 34.17 24.92 34.13 24.88"/></g></svg>